<svg width="1488" height="277" viewBox="0 0 1488 277" fill="none" xmlns="http://www.w3.org/2000/svg">
<path fill-rule="evenodd" clip-rule="evenodd" d="M125.419 261.814C177.236 261.814 221.713 230.391 240.835 185.561C217.921 180.925 200.67 160.672 200.67 136.39C200.67 112.11 217.919 91.8582 240.832 87.2206C221.708 42.395 177.233 10.9756 125.419 10.9756C56.1521 10.9756 0 67.1277 0 136.395C0 205.662 56.1521 261.814 125.419 261.814ZM125.419 186.558C153.126 186.558 175.587 164.097 175.587 136.39C175.587 108.684 153.126 86.2227 125.419 86.2227C97.7126 86.2227 75.2517 108.684 75.2517 136.39C75.2517 164.097 97.7126 186.558 125.419 186.558ZM250.843 158.34C262.964 158.34 272.791 148.513 272.791 136.391C272.791 124.269 262.964 114.443 250.843 114.443C238.721 114.443 228.894 124.269 228.894 136.391C228.894 148.513 238.721 158.34 250.843 158.34Z" fill="white"/>
<path d="M350.25 142.5C350.25 132.2 352.55 123 357.15 114.9C361.85 106.7 368.2 100.35 376.2 95.85C384.3 91.25 393.35 88.95 403.35 88.95C415.05 88.95 425.3 91.95 434.1 97.95C442.9 103.95 449.05 112.25 452.55 122.85H428.4C426 117.85 422.6 114.1 418.2 111.6C413.9 109.1 408.9 107.85 403.2 107.85C397.1 107.85 391.65 109.3 386.85 112.2C382.15 115 378.45 119 375.75 124.2C373.15 129.4 371.85 135.5 371.85 142.5C371.85 149.4 373.15 155.5 375.75 160.8C378.45 166 382.15 170.05 386.85 172.95C391.65 175.75 397.1 177.15 403.2 177.15C408.9 177.15 413.9 175.9 418.2 173.4C422.6 170.8 426 167 428.4 162H452.55C449.05 172.7 442.9 181.05 434.1 187.05C425.4 192.95 415.15 195.9 403.35 195.9C393.35 195.9 384.3 193.65 376.2 189.15C368.2 184.55 361.85 178.2 357.15 170.1C352.55 162 350.25 152.8 350.25 142.5ZM519.087 196.05C509.287 196.05 500.287 193.75 492.087 189.15C483.887 184.55 477.387 178.2 472.587 170.1C467.787 161.9 465.387 152.65 465.387 142.35C465.387 132.15 467.787 123 472.587 114.9C477.387 106.7 483.887 100.3 492.087 95.7C500.287 91.1 509.287 88.8 519.087 88.8C528.987 88.8 537.987 91.1 546.087 95.7C554.287 100.3 560.737 106.7 565.437 114.9C570.237 123 572.637 132.15 572.637 142.35C572.637 152.65 570.237 161.9 565.437 170.1C560.737 178.2 554.287 184.55 546.087 189.15C537.887 193.75 528.887 196.05 519.087 196.05ZM519.087 177.3C525.387 177.3 530.937 175.9 535.737 173.1C540.537 170.2 544.287 166.1 546.987 160.8C549.687 155.5 551.037 149.35 551.037 142.35C551.037 135.35 549.687 129.25 546.987 124.05C544.287 118.75 540.537 114.7 535.737 111.9C530.937 109.1 525.387 107.7 519.087 107.7C512.787 107.7 507.187 109.1 502.287 111.9C497.487 114.7 493.737 118.75 491.037 124.05C488.337 129.25 486.987 135.35 486.987 142.35C486.987 149.35 488.337 155.5 491.037 160.8C493.737 166.1 497.487 170.2 502.287 173.1C507.187 175.9 512.787 177.3 519.087 177.3ZM624.41 196.05C617.11 196.05 610.51 194.8 604.61 192.3C598.81 189.8 594.21 186.2 590.81 181.5C587.41 176.8 585.66 171.25 585.56 164.85H608.06C608.36 169.15 609.86 172.55 612.56 175.05C615.36 177.55 619.16 178.8 623.96 178.8C628.86 178.8 632.71 177.65 635.51 175.35C638.31 172.95 639.71 169.85 639.71 166.05C639.71 162.95 638.76 160.4 636.86 158.4C634.96 156.4 632.56 154.85 629.66 153.75C626.86 152.55 622.96 151.25 617.96 149.85C611.16 147.85 605.61 145.9 601.31 144C597.11 142 593.46 139.05 590.36 135.15C587.36 131.15 585.86 125.85 585.86 119.25C585.86 113.05 587.41 107.65 590.51 103.05C593.61 98.45 597.96 94.95 603.56 92.55C609.16 90.05 615.56 88.8 622.76 88.8C633.56 88.8 642.31 91.45 649.01 96.75C655.81 101.95 659.56 109.25 660.26 118.65H637.16C636.96 115.05 635.41 112.1 632.51 109.8C629.71 107.4 625.96 106.2 621.26 106.2C617.16 106.2 613.86 107.25 611.36 109.35C608.96 111.45 607.76 114.5 607.76 118.5C607.76 121.3 608.66 123.65 610.46 125.55C612.36 127.35 614.66 128.85 617.36 130.05C620.16 131.15 624.06 132.45 629.06 133.95C635.86 135.95 641.41 137.95 645.71 139.95C650.01 141.95 653.71 144.95 656.81 148.95C659.91 152.95 661.46 158.2 661.46 164.7C661.46 170.3 660.01 175.5 657.11 180.3C654.21 185.1 649.96 188.95 644.36 191.85C638.76 194.65 632.11 196.05 624.41 196.05ZM793.816 90.3V195H772.816V126.9L744.766 195H728.866L700.666 126.9V195H679.666V90.3H703.516L736.816 168.15L770.116 90.3H793.816ZM863.179 196.05C853.379 196.05 844.379 193.75 836.179 189.15C827.979 184.55 821.479 178.2 816.679 170.1C811.879 161.9 809.479 152.65 809.479 142.35C809.479 132.15 811.879 123 816.679 114.9C821.479 106.7 827.979 100.3 836.179 95.7C844.379 91.1 853.379 88.8 863.179 88.8C873.079 88.8 882.079 91.1 890.179 95.7C898.379 100.3 904.829 106.7 909.529 114.9C914.329 123 916.729 132.15 916.729 142.35C916.729 152.65 914.329 161.9 909.529 170.1C904.829 178.2 898.379 184.55 890.179 189.15C881.979 193.75 872.979 196.05 863.179 196.05ZM863.179 177.3C869.479 177.3 875.029 175.9 879.829 173.1C884.629 170.2 888.379 166.1 891.079 160.8C893.779 155.5 895.129 149.35 895.129 142.35C895.129 135.35 893.779 129.25 891.079 124.05C888.379 118.75 884.629 114.7 879.829 111.9C875.029 109.1 869.479 107.7 863.179 107.7C856.879 107.7 851.279 109.1 846.379 111.9C841.579 114.7 837.829 118.75 835.129 124.05C832.429 129.25 831.079 135.35 831.079 142.35C831.079 149.35 832.429 155.5 835.129 160.8C837.829 166.1 841.579 170.2 846.379 173.1C851.279 175.9 856.879 177.3 863.179 177.3ZM968.502 196.05C961.202 196.05 954.602 194.8 948.702 192.3C942.902 189.8 938.302 186.2 934.902 181.5C931.502 176.8 929.752 171.25 929.652 164.85H952.152C952.452 169.15 953.952 172.55 956.652 175.05C959.452 177.55 963.252 178.8 968.052 178.8C972.952 178.8 976.802 177.65 979.602 175.35C982.402 172.95 983.802 169.85 983.802 166.05C983.802 162.95 982.852 160.4 980.952 158.4C979.052 156.4 976.652 154.85 973.752 153.75C970.952 152.55 967.052 151.25 962.052 149.85C955.252 147.85 949.702 145.9 945.402 144C941.202 142 937.552 139.05 934.452 135.15C931.452 131.15 929.952 125.85 929.952 119.25C929.952 113.05 931.502 107.65 934.602 103.05C937.702 98.45 942.052 94.95 947.652 92.55C953.252 90.05 959.652 88.8 966.852 88.8C977.652 88.8 986.402 91.45 993.102 96.75C999.902 101.95 1003.65 109.25 1004.35 118.65H981.252C981.052 115.05 979.502 112.1 976.602 109.8C973.802 107.4 970.052 106.2 965.352 106.2C961.252 106.2 957.952 107.25 955.452 109.35C953.052 111.45 951.852 114.5 951.852 118.5C951.852 121.3 952.752 123.65 954.552 125.55C956.452 127.35 958.752 128.85 961.452 130.05C964.252 131.15 968.152 132.45 973.152 133.95C979.952 135.95 985.502 137.95 989.802 139.95C994.102 141.95 997.802 144.95 1000.9 148.95C1004 152.95 1005.55 158.2 1005.55 164.7C1005.55 170.3 1004.1 175.5 1001.2 180.3C998.302 185.1 994.052 188.95 988.452 191.85C982.852 194.65 976.202 196.05 968.502 196.05ZM1018.66 142.5C1018.66 132.2 1020.96 123 1025.56 114.9C1030.26 106.7 1036.61 100.35 1044.61 95.85C1052.71 91.25 1061.76 88.95 1071.76 88.95C1083.46 88.95 1093.71 91.95 1102.51 97.95C1111.31 103.95 1117.46 112.25 1120.96 122.85H1096.81C1094.41 117.85 1091.01 114.1 1086.61 111.6C1082.31 109.1 1077.31 107.85 1071.61 107.85C1065.51 107.85 1060.06 109.3 1055.26 112.2C1050.56 115 1046.86 119 1044.16 124.2C1041.56 129.4 1040.26 135.5 1040.26 142.5C1040.26 149.4 1041.56 155.5 1044.16 160.8C1046.86 166 1050.56 170.05 1055.26 172.95C1060.06 175.75 1065.51 177.15 1071.61 177.15C1077.31 177.15 1082.31 175.9 1086.61 173.4C1091.01 170.8 1094.41 167 1096.81 162H1120.96C1117.46 172.7 1111.31 181.05 1102.51 187.05C1093.81 192.95 1083.56 195.9 1071.76 195.9C1061.76 195.9 1052.71 193.65 1044.61 189.15C1036.61 184.55 1030.26 178.2 1025.56 170.1C1020.96 162 1018.66 152.8 1018.66 142.5ZM1203.09 175.05H1161.39L1154.49 195H1132.44L1170.09 90.15H1194.54L1232.19 195H1209.99L1203.09 175.05ZM1197.39 158.25L1182.24 114.45L1167.09 158.25H1197.39ZM1300.27 195L1277.17 154.2H1267.27V195H1246.27V90.3H1285.57C1293.67 90.3 1300.57 91.75 1306.27 94.65C1311.97 97.45 1316.22 101.3 1319.02 106.2C1321.92 111 1323.37 116.4 1323.37 122.4C1323.37 129.3 1321.37 135.55 1317.37 141.15C1313.37 146.65 1307.42 150.45 1299.52 152.55L1324.57 195H1300.27ZM1267.27 138.45H1284.82C1290.52 138.45 1294.77 137.1 1297.57 134.4C1300.37 131.6 1301.77 127.75 1301.77 122.85C1301.77 118.05 1300.37 114.35 1297.57 111.75C1294.77 109.05 1290.52 107.7 1284.82 107.7H1267.27V138.45ZM1378.96 90.3C1389.96 90.3 1399.61 92.45 1407.91 96.75C1416.31 101.05 1422.76 107.2 1427.26 115.2C1431.86 123.1 1434.16 132.3 1434.16 142.8C1434.16 153.3 1431.86 162.5 1427.26 170.4C1422.76 178.2 1416.31 184.25 1407.91 188.55C1399.61 192.85 1389.96 195 1378.96 195H1342.36V90.3H1378.96ZM1378.21 177.15C1389.21 177.15 1397.71 174.15 1403.71 168.15C1409.71 162.15 1412.71 153.7 1412.71 142.8C1412.71 131.9 1409.71 123.4 1403.71 117.3C1397.71 111.1 1389.21 108 1378.21 108H1363.36V177.15H1378.21Z" fill="white"/>
</svg>
