<svg width="1902" height="277" viewBox="0 0 1902 277" fill="none" xmlns="http://www.w3.org/2000/svg">
<path fill-rule="evenodd" clip-rule="evenodd" d="M125.419 261.814C177.236 261.814 221.713 230.391 240.835 185.561C217.921 180.925 200.67 160.672 200.67 136.39C200.67 112.11 217.919 91.8582 240.832 87.2206C221.708 42.395 177.233 10.9756 125.419 10.9756C56.1521 10.9756 0 67.1277 0 136.395C0 205.662 56.1521 261.814 125.419 261.814ZM125.419 186.558C153.126 186.558 175.587 164.097 175.587 136.39C175.587 108.684 153.126 86.2227 125.419 86.2227C97.7126 86.2227 75.2517 108.684 75.2517 136.39C75.2517 164.097 97.7126 186.558 125.419 186.558ZM250.843 158.34C262.964 158.34 272.791 148.513 272.791 136.391C272.791 124.269 262.964 114.443 250.843 114.443C238.721 114.443 228.894 124.269 228.894 136.391C228.894 148.513 238.721 158.34 250.843 158.34Z" fill="white"/>
<path d="M498.07 202.117C486.026 206.023 473.005 207.977 459.008 207.977C410.18 207.977 385.766 183.725 385.766 135.223C385.766 89.3242 410.18 66.375 459.008 66.375C473.005 66.375 486.026 68.3281 498.07 72.2344V87.8594C486.026 83.3021 473.656 81.0234 460.961 81.0234C422.875 81.0234 403.832 99.0898 403.832 135.223C403.832 173.96 422.875 193.328 460.961 193.328C473.656 193.328 486.026 191.049 498.07 186.492V202.117ZM542.113 136.785C542.113 174.48 559.138 193.328 593.188 193.328C626.521 193.328 643.188 174.48 643.188 136.785C643.188 99.6107 626.521 81.0234 593.188 81.0234C559.138 81.0234 542.113 99.6107 542.113 136.785ZM523.07 137.371C523.07 90.0404 546.443 66.375 593.188 66.375C639.216 66.375 662.23 90.0404 662.23 137.371C662.23 184.441 639.216 207.977 593.188 207.977C546.443 207.977 523.07 184.441 523.07 137.371ZM688.695 202.117V185.516C703.344 190.724 719.164 193.328 736.156 193.328C760.18 193.328 772.191 184.539 772.191 166.961C772.191 151.987 763.337 144.5 745.629 144.5H727.66C698.428 144.5 683.812 131.805 683.812 106.414C683.812 79.7214 702.53 66.375 739.965 66.375C756.241 66.375 771.378 68.3281 785.375 72.2344V88.8359C771.378 83.6276 756.241 81.0234 739.965 81.0234C714.574 81.0234 701.879 89.487 701.879 106.414C701.879 121.388 710.473 128.875 727.66 128.875H745.629C775.382 128.875 790.258 141.57 790.258 166.961C790.258 194.305 772.224 207.977 736.156 207.977C719.164 207.977 703.344 206.023 688.695 202.117ZM816.625 207V67.3516H839.574L890.844 183.855L941.137 67.3516H963.109V207H946.996V92.4492L897.387 207H883.129L832.738 92.4492V207H816.625ZM1010.47 136.785C1010.47 174.48 1027.5 193.328 1061.55 193.328C1094.88 193.328 1111.55 174.48 1111.55 136.785C1111.55 99.6107 1094.88 81.0234 1061.55 81.0234C1027.5 81.0234 1010.47 99.6107 1010.47 136.785ZM991.43 137.371C991.43 90.0404 1014.8 66.375 1061.55 66.375C1107.58 66.375 1130.59 90.0404 1130.59 137.371C1130.59 184.441 1107.58 207.977 1061.55 207.977C1014.8 207.977 991.43 184.441 991.43 137.371ZM1157.05 202.117V185.516C1171.7 190.724 1187.52 193.328 1204.52 193.328C1228.54 193.328 1240.55 184.539 1240.55 166.961C1240.55 151.987 1231.7 144.5 1213.99 144.5H1196.02C1166.79 144.5 1152.17 131.805 1152.17 106.414C1152.17 79.7214 1170.89 66.375 1208.32 66.375C1224.6 66.375 1239.74 68.3281 1253.73 72.2344V88.8359C1239.74 83.6276 1224.6 81.0234 1208.32 81.0234C1182.93 81.0234 1170.24 89.487 1170.24 106.414C1170.24 121.388 1178.83 128.875 1196.02 128.875H1213.99C1243.74 128.875 1258.62 141.57 1258.62 166.961C1258.62 194.305 1240.58 207.977 1204.52 207.977C1187.52 207.977 1171.7 206.023 1157.05 202.117ZM1390.45 202.117C1378.41 206.023 1365.39 207.977 1351.39 207.977C1302.56 207.977 1278.15 183.725 1278.15 135.223C1278.15 89.3242 1302.56 66.375 1351.39 66.375C1365.39 66.375 1378.41 68.3281 1390.45 72.2344V87.8594C1378.41 83.3021 1366.04 81.0234 1353.34 81.0234C1315.26 81.0234 1296.21 99.0898 1296.21 135.223C1296.21 173.96 1315.26 193.328 1353.34 193.328C1366.04 193.328 1378.41 191.049 1390.45 186.492V202.117ZM1424.93 207H1406.18L1465.45 67.3516H1485.47L1545.04 207H1525.02L1506.96 163.055H1460.77L1465.75 148.406H1500.9L1474.83 85.125L1424.93 207ZM1564.09 207V67.3516H1623.66C1650.22 67.3516 1663.5 78.5169 1663.5 100.848C1663.5 119.012 1650.51 132.456 1624.54 141.18L1672.48 207H1648.66L1604.22 144.207V132.391C1630.92 128.159 1644.26 117.905 1644.26 101.629C1644.26 88.7383 1636.84 82.293 1622 82.293H1582.15V207H1564.09ZM1742.41 192.352C1776.59 192.352 1793.68 172.69 1793.68 133.367C1793.68 99.1224 1776.59 82 1742.41 82H1709.69V192.352H1742.41ZM1691.62 207V67.3516H1742.41C1788.63 67.3516 1811.74 89.3568 1811.74 133.367C1811.74 182.456 1788.63 207 1742.41 207H1691.62Z" fill="white"/>
</svg>
