<svg width="1070" height="107" viewBox="0 0 1070 107" fill="none" xmlns="http://www.w3.org/2000/svg">
<path d="M84.5527 102.338C75.5195 105.268 65.7539 106.732 55.2559 106.732C18.6348 106.732 0.324219 88.5439 0.324219 52.167C0.324219 17.7432 18.6348 0.53125 55.2559 0.53125C65.7539 0.53125 75.5195 1.99609 84.5527 4.92578V16.6445C75.5195 13.2266 66.2422 11.5176 56.7207 11.5176C28.1562 11.5176 13.874 25.0674 13.874 52.167C13.874 81.2197 28.1562 95.7461 56.7207 95.7461C66.2422 95.7461 75.5195 94.0371 84.5527 90.6191V102.338ZM117.585 53.3389C117.585 81.6104 130.354 95.7461 155.891 95.7461C180.891 95.7461 193.391 81.6104 193.391 53.3389C193.391 25.458 180.891 11.5176 155.891 11.5176C130.354 11.5176 117.585 25.458 117.585 53.3389ZM103.303 53.7783C103.303 18.2803 120.832 0.53125 155.891 0.53125C190.412 0.53125 207.673 18.2803 207.673 53.7783C207.673 89.0811 190.412 106.732 155.891 106.732C120.832 106.732 103.303 89.0811 103.303 53.7783ZM227.521 102.338V89.8867C238.508 93.793 250.373 95.7461 263.117 95.7461C281.135 95.7461 290.144 89.1543 290.144 75.9707C290.144 64.7402 283.503 59.125 270.222 59.125H256.745C234.821 59.125 223.859 49.6035 223.859 30.5605C223.859 10.541 237.897 0.53125 265.974 0.53125C278.181 0.53125 289.533 1.99609 300.031 4.92578V17.377C289.533 13.4707 278.181 11.5176 265.974 11.5176C246.931 11.5176 237.409 17.8652 237.409 30.5605C237.409 41.791 243.854 47.4062 256.745 47.4062H270.222C292.536 47.4062 303.693 56.9277 303.693 75.9707C303.693 96.4785 290.168 106.732 263.117 106.732C250.373 106.732 238.508 105.268 227.521 102.338ZM323.469 106V1.26367H340.681L379.133 88.6416L416.853 1.26367H433.332V106H421.247V20.0869L384.04 106H373.347L335.554 20.0869V106H323.469ZM468.854 53.3389C468.854 81.6104 481.623 95.7461 507.16 95.7461C532.16 95.7461 544.66 81.6104 544.66 53.3389C544.66 25.458 532.16 11.5176 507.16 11.5176C481.623 11.5176 468.854 25.458 468.854 53.3389ZM454.572 53.7783C454.572 18.2803 472.102 0.53125 507.16 0.53125C541.682 0.53125 558.942 18.2803 558.942 53.7783C558.942 89.0811 541.682 106.732 507.16 106.732C472.102 106.732 454.572 89.0811 454.572 53.7783ZM578.791 102.338V89.8867C589.777 93.793 601.643 95.7461 614.387 95.7461C632.404 95.7461 641.413 89.1543 641.413 75.9707C641.413 64.7402 634.772 59.125 621.491 59.125H608.015C586.091 59.125 575.129 49.6035 575.129 30.5605C575.129 10.541 589.167 0.53125 617.243 0.53125C629.45 0.53125 640.803 1.99609 651.301 4.92578V17.377C640.803 13.4707 629.45 11.5176 617.243 11.5176C598.2 11.5176 588.679 17.8652 588.679 30.5605C588.679 41.791 595.124 47.4062 608.015 47.4062H621.491C643.806 47.4062 654.963 56.9277 654.963 75.9707C654.963 96.4785 641.438 106.732 614.387 106.732C601.643 106.732 589.777 105.268 578.791 102.338ZM753.84 102.338C744.807 105.268 735.041 106.732 724.543 106.732C687.922 106.732 669.611 88.5439 669.611 52.167C669.611 17.7432 687.922 0.53125 724.543 0.53125C735.041 0.53125 744.807 1.99609 753.84 4.92578V16.6445C744.807 13.2266 735.529 11.5176 726.008 11.5176C697.443 11.5176 683.161 25.0674 683.161 52.167C683.161 81.2197 697.443 95.7461 726.008 95.7461C735.529 95.7461 744.807 94.0371 753.84 90.6191V102.338ZM779.694 106H765.632L810.09 1.26367H825.104L869.782 106H854.768L841.218 73.041H806.574L810.31 62.0547H836.677L817.121 14.5938L779.694 106ZM884.064 106V1.26367H928.742C948.664 1.26367 958.625 9.6377 958.625 26.3857C958.625 40.0088 948.884 50.0918 929.401 56.6348L965.363 106H947.492L914.167 58.9053V50.043C934.187 46.8691 944.196 39.1787 944.196 26.9717C944.196 17.3037 938.63 12.4697 927.497 12.4697H897.614V106H884.064ZM1017.8 95.0137C1043.44 95.0137 1056.26 80.2676 1056.26 50.7754C1056.26 25.0918 1043.44 12.25 1017.8 12.25H993.269V95.0137H1017.8ZM979.719 106V1.26367H1017.8C1052.47 1.26367 1069.81 17.7676 1069.81 50.7754C1069.81 87.5918 1052.47 106 1017.8 106H979.719Z" fill="white"/>
</svg>
